<svg width="24" height="24" viewBox="0 0 24 24" fill="none" xmlns="http://www.w3.org/2000/svg">
<path d="M12 24C18.6274 24 24 18.6274 24 12C24 5.37258 18.6274 0 12 0C5.37258 0 0 5.37258 0 12C0 18.6274 5.37258 24 12 24Z" fill="#EAECF0"/>
<path d="M14.917 17.1038H9.08366C6.51116 17.1038 5.72949 16.3222 5.72949 13.7497V13.458C5.72949 13.2188 5.92783 13.0205 6.16699 13.0205C6.72699 13.0205 7.18783 12.5597 7.18783 11.9997C7.18783 11.4397 6.72699 10.9788 6.16699 10.9788C5.92783 10.9788 5.72949 10.7805 5.72949 10.5413V10.2497C5.72949 7.67717 6.51116 6.89551 9.08366 6.89551H14.917C17.4895 6.89551 18.2712 7.67717 18.2712 10.2497V10.833C18.2712 11.0722 18.0728 11.2705 17.8337 11.2705C17.2737 11.2705 16.8128 11.7313 16.8128 12.2913C16.8128 12.8513 17.2737 13.3122 17.8337 13.3122C18.0728 13.3122 18.2712 13.5105 18.2712 13.7497C18.2712 16.3222 17.4895 17.1038 14.917 17.1038ZM6.60449 13.843C6.61616 15.8497 7.03033 16.2288 9.08366 16.2288H14.917C16.8653 16.2288 17.3378 15.8847 17.3903 14.1347C16.5562 13.9363 15.9378 13.1838 15.9378 12.2913C15.9378 11.3988 16.562 10.6463 17.3962 10.448V10.2497C17.3962 8.16717 17.0053 7.77051 14.917 7.77051H9.08366C7.03033 7.77051 6.61616 8.14967 6.60449 10.1563C7.43866 10.3547 8.06283 11.1072 8.06283 11.9997C8.06283 12.8922 7.43866 13.6447 6.60449 13.843Z" fill="#374357"/>
<path d="M10.833 9.22884C10.5938 9.22884 10.3955 9.03051 10.3955 8.79134V7.33301C10.3955 7.09384 10.5938 6.89551 10.833 6.89551C11.0722 6.89551 11.2705 7.09384 11.2705 7.33301V8.79134C11.2705 9.03051 11.0722 9.22884 10.833 9.22884Z" fill="#374357"/>
<path d="M10.833 13.5051C10.5938 13.5051 10.3955 13.3068 10.3955 13.0676V10.9268C10.3955 10.6876 10.5938 10.4893 10.833 10.4893C11.0722 10.4893 11.2705 10.6876 11.2705 10.9268V13.0676C11.2705 13.3126 11.0722 13.5051 10.833 13.5051Z" fill="#374357"/>
<path d="M10.833 17.1038C10.5938 17.1038 10.3955 16.9055 10.3955 16.6663V15.208C10.3955 14.9688 10.5938 14.7705 10.833 14.7705C11.0722 14.7705 11.2705 14.9688 11.2705 15.208V16.6663C11.2705 16.9055 11.0722 17.1038 10.833 17.1038Z" fill="#374357"/>
</svg>
