<svg width="24" height="24" viewBox="0 0 24 24" fill="none" xmlns="http://www.w3.org/2000/svg">
<path d="M12 24C18.6274 24 24 18.6274 24 12C24 5.37258 18.6274 0 12 0C5.37258 0 0 5.37258 0 12C0 18.6274 5.37258 24 12 24Z" fill="#EAECF0"/>
<path d="M13.7503 12.5537H9.66699C9.42783 12.5537 9.22949 12.3554 9.22949 12.1162C9.22949 11.877 9.42783 11.6787 9.66699 11.6787H13.7503C13.9895 11.6787 14.1878 11.877 14.1878 12.1162C14.1878 12.3554 13.9895 12.5537 13.7503 12.5537Z" fill="#374357"/>
<path d="M12.222 14.8877H9.66699C9.42783 14.8877 9.22949 14.6894 9.22949 14.4502C9.22949 14.211 9.42783 14.0127 9.66699 14.0127H12.222C12.4612 14.0127 12.6595 14.211 12.6595 14.4502C12.6595 14.6894 12.4612 14.8877 12.222 14.8877Z" fill="#374357"/>
<path d="M13.167 8.93783H10.8337C10.2737 8.93783 9.22949 8.93783 9.22949 7.33366C9.22949 5.72949 10.2737 5.72949 10.8337 5.72949H13.167C13.727 5.72949 14.7712 5.72949 14.7712 7.33366C14.7712 7.89366 14.7712 8.93783 13.167 8.93783ZM10.8337 6.60449C10.2562 6.60449 10.1045 6.60449 10.1045 7.33366C10.1045 8.06283 10.2562 8.06283 10.8337 8.06283H13.167C13.8962 8.06283 13.8962 7.91116 13.8962 7.33366C13.8962 6.60449 13.7445 6.60449 13.167 6.60449H10.8337Z" fill="#374357"/>
<path d="M13.75 18.2711H10.25C6.97167 18.2711 6.3125 16.7661 6.3125 14.3336V10.8336C6.3125 8.17358 7.275 7.03608 9.64333 6.91358C9.87667 6.90191 10.0925 7.08275 10.1042 7.32775C10.1158 7.57275 9.92917 7.77108 9.69 7.78275C8.03333 7.87608 7.1875 8.37191 7.1875 10.8336V14.3336C7.1875 16.4919 7.61333 17.3961 10.25 17.3961H13.75C16.3867 17.3961 16.8125 16.4919 16.8125 14.3336V10.8336C16.8125 8.37191 15.9667 7.87608 14.31 7.78275C14.0708 7.77108 13.8842 7.56108 13.8958 7.32191C13.9075 7.08275 14.1175 6.89608 14.3567 6.90775C16.725 7.03608 17.6875 8.17358 17.6875 10.8277V14.3277C17.6875 16.7661 17.0283 18.2711 13.75 18.2711Z" fill="#374357"/>
</svg>
