<svg width="24" height="24" viewBox="0 0 24 24" fill="none" xmlns="http://www.w3.org/2000/svg">
<path d="M12 24C18.6274 24 24 18.6274 24 12C24 5.37258 18.6274 0 12 0C5.37258 0 0 5.37258 0 12C0 18.6274 5.37258 24 12 24Z" fill="#EAECF0"/>
<path d="M14.3336 18.2709H9.66696C6.97196 18.2709 6.4703 17.0167 6.34196 15.7975L5.90446 11.125C5.8403 10.5125 5.8228 9.60836 6.42946 8.93169C6.95446 8.34836 7.82363 8.06836 9.08363 8.06836H14.917C16.1828 8.06836 17.052 8.35419 17.5711 8.93169C18.1778 9.60836 18.1603 10.5125 18.0961 11.1309L17.6586 15.7917C17.5303 17.0167 17.0286 18.2709 14.3336 18.2709ZM9.08363 8.93753C8.0978 8.93753 7.42113 9.13003 7.07696 9.51503C6.79113 9.83003 6.6978 10.3142 6.77363 11.0375L7.21113 15.71C7.3103 16.6317 7.56113 17.3959 9.66696 17.3959H14.3336C16.4336 17.3959 16.6903 16.6317 16.7895 15.7042L17.227 11.0434C17.3028 10.3142 17.2095 9.83003 16.9236 9.51503C16.5795 9.13003 15.9028 8.93753 14.917 8.93753H9.08363Z" fill="#374357"/>
<path d="M14.3337 8.93783C14.0945 8.93783 13.8962 8.73949 13.8962 8.50033V8.03366C13.8962 6.99533 13.8962 6.60449 12.467 6.60449H11.5337C10.1045 6.60449 10.1045 6.99533 10.1045 8.03366V8.50033C10.1045 8.73949 9.90616 8.93783 9.66699 8.93783C9.42783 8.93783 9.22949 8.73949 9.22949 8.50033V8.03366C9.22949 7.00699 9.22949 5.72949 11.5337 5.72949H12.467C14.7712 5.72949 14.7712 7.00699 14.7712 8.03366V8.50033C14.7712 8.73949 14.5728 8.93783 14.3337 8.93783Z" fill="#374357"/>
<path d="M11.9997 14.7708C10.3955 14.7708 10.3955 13.7792 10.3955 13.1842V12.5833C10.3955 11.7608 10.5938 11.5625 11.4163 11.5625H12.583C13.4055 11.5625 13.6038 11.7608 13.6038 12.5833V13.1667C13.6038 13.7733 13.6038 14.7708 11.9997 14.7708ZM11.2705 12.4375C11.2705 12.4842 11.2705 12.5367 11.2705 12.5833V13.1842C11.2705 13.785 11.2705 13.8958 11.9997 13.8958C12.7288 13.8958 12.7288 13.8025 12.7288 13.1783V12.5833C12.7288 12.5367 12.7288 12.4842 12.7288 12.4375C12.6822 12.4375 12.6297 12.4375 12.583 12.4375H11.4163C11.3697 12.4375 11.3172 12.4375 11.2705 12.4375Z" fill="#374357"/>
<path d="M13.1664 13.6158C12.9505 13.6158 12.758 13.4525 12.7347 13.2308C12.7055 12.9916 12.8747 12.77 13.1139 12.7408C14.6539 12.5483 16.1297 11.965 17.3722 11.0608C17.5647 10.915 17.8389 10.9616 17.9847 11.16C18.1247 11.3525 18.0839 11.6266 17.8855 11.7725C16.5205 12.7641 14.9105 13.4 13.2189 13.6158C13.2014 13.6158 13.1839 13.6158 13.1664 13.6158Z" fill="#374357"/>
<path d="M10.8338 13.6212C10.8163 13.6212 10.7988 13.6212 10.7813 13.6212C9.18292 13.4404 7.62542 12.857 6.27792 11.9354C6.07959 11.8012 6.02709 11.527 6.16125 11.3287C6.29542 11.1304 6.56959 11.0779 6.76792 11.212C7.99875 12.052 9.41626 12.5829 10.8746 12.752C11.1138 12.7812 11.2888 12.997 11.2596 13.2362C11.2421 13.4579 11.0554 13.6212 10.8338 13.6212Z" fill="#374357"/>
</svg>
