<svg width="24" height="24" viewBox="0 0 24 24" fill="none" xmlns="http://www.w3.org/2000/svg">
<path d="M12 24C18.6274 24 24 18.6274 24 12C24 5.37258 18.6274 0 12 0C5.37258 0 0 5.37258 0 12C0 18.6274 5.37258 24 12 24Z" fill="#FEE6DA"/>
<path d="M14.0942 17.6348C13.9834 17.6348 13.8726 17.5939 13.7851 17.5064C13.6159 17.3373 13.6159 17.0573 13.7851 16.8881L15.4301 15.2431C15.5992 15.0739 15.8792 15.0739 16.0484 15.2431C16.2176 15.4123 16.2176 15.6923 16.0484 15.8614L14.4034 17.5064C14.3159 17.5939 14.2051 17.6348 14.0942 17.6348Z" fill="#EB4747"/>
<path d="M15.7392 17.6348C15.6284 17.6348 15.5176 17.5939 15.4301 17.5064L13.7851 15.8614C13.6159 15.6923 13.6159 15.4123 13.7851 15.2431C13.9542 15.0739 14.2342 15.0739 14.4034 15.2431L16.0484 16.8881C16.2176 17.0573 16.2176 17.3373 16.0484 17.5064C15.9609 17.5939 15.8501 17.6348 15.7392 17.6348Z" fill="#EB4747"/>
<path d="M12.0935 11.7787C12.076 11.7787 12.0643 11.7787 12.0468 11.7787C12.0177 11.7728 11.9768 11.7728 11.9418 11.7787C10.2502 11.7262 8.97266 10.3962 8.97266 8.75699C8.97266 7.08866 10.3318 5.72949 12.0002 5.72949C13.6685 5.72949 15.0277 7.08866 15.0277 8.75699C15.0218 10.3962 13.7385 11.7262 12.111 11.7787C12.1052 11.7787 12.0993 11.7787 12.0935 11.7787ZM12.0002 6.60449C10.816 6.60449 9.84766 7.57283 9.84766 8.75699C9.84766 9.92366 10.7577 10.8628 11.9185 10.9037C11.9535 10.8978 12.0293 10.8978 12.1052 10.9037C13.2485 10.8512 14.1468 9.91199 14.1527 8.75699C14.1527 7.57283 13.1843 6.60449 12.0002 6.60449Z" fill="#EB4747"/>
<path d="M11.9998 18.1601C10.8098 18.1601 9.68396 17.851 8.83229 17.2793C8.02146 16.7368 7.57812 15.996 7.57812 15.1968C7.57812 14.3976 8.02729 13.6626 8.83229 13.126C10.5765 11.9593 13.4115 11.9593 15.1556 13.126C15.354 13.2601 15.4123 13.5343 15.2781 13.7326C15.144 13.9368 14.8698 13.9893 14.6715 13.8551C13.219 12.8868 10.769 12.8868 9.31646 13.8551C8.75646 14.2285 8.45312 14.701 8.45312 15.1968C8.45312 15.6926 8.76229 16.1768 9.31646 16.5501C10.0223 17.0226 10.9731 17.2793 11.994 17.2793C12.2331 17.2793 12.4315 17.4776 12.4315 17.7168C12.4315 17.956 12.239 18.1601 11.9998 18.1601Z" fill="#EB4747"/>
</svg>
