<svg width="24" height="24" viewBox="0 0 24 24" fill="none" xmlns="http://www.w3.org/2000/svg">
<path d="M12 24C18.6274 24 24 18.6274 24 12C24 5.37258 18.6274 0 12 0C5.37258 0 0 5.37258 0 12C0 18.6274 5.37258 24 12 24Z" fill="#EAECF0"/>
<path d="M15.348 18.2705H8.65134C7.19884 18.2705 6.02051 17.0922 6.02051 15.6397V11.7138C6.02051 10.2613 7.19884 9.08301 8.65134 9.08301H15.348C16.8005 9.08301 17.9788 10.2613 17.9788 11.7138V12.5538C17.9788 12.793 17.7805 12.9913 17.5413 12.9913H16.363C16.1588 12.9913 15.9722 13.0672 15.838 13.2072L15.8322 13.213C15.6688 13.3705 15.593 13.5863 15.6105 13.808C15.6455 14.193 16.013 14.5022 16.433 14.5022H17.5413C17.7805 14.5022 17.9788 14.7005 17.9788 14.9397V15.6338C17.9788 17.0922 16.8005 18.2705 15.348 18.2705ZM8.65134 9.95801C7.68301 9.95801 6.89551 10.7455 6.89551 11.7138V15.6397C6.89551 16.608 7.68301 17.3955 8.65134 17.3955H15.348C16.3163 17.3955 17.1038 16.608 17.1038 15.6397V15.383H16.433C15.5522 15.383 14.8055 14.7297 14.7355 13.8897C14.6888 13.4113 14.8638 12.9389 15.2138 12.5947C15.5172 12.2855 15.9255 12.1163 16.363 12.1163H17.1038V11.7138C17.1038 10.7455 16.3163 9.95801 15.348 9.95801H8.65134V9.95801Z" fill="#374357"/>
<path d="M6.45801 12.677C6.21884 12.677 6.02051 12.4787 6.02051 12.2395V9.57369C6.02051 8.70453 6.56884 7.917 7.37967 7.60783L12.0113 5.85783C12.4897 5.677 13.0205 5.74119 13.4347 6.03286C13.8547 6.32452 14.0997 6.79702 14.0997 7.30452V9.52118C14.0997 9.76035 13.9013 9.95868 13.6622 9.95868C13.423 9.95868 13.2247 9.76035 13.2247 9.52118V7.30452C13.2247 7.08285 13.1197 6.87868 12.933 6.75035C12.7463 6.62201 12.5247 6.59284 12.3147 6.67451L7.68301 8.42451C7.21051 8.60534 6.88967 9.06619 6.88967 9.57369V12.2395C6.89551 12.4845 6.69717 12.677 6.45801 12.677Z" fill="#374357"/>
<path d="M16.4334 15.3829C15.5526 15.3829 14.8059 14.7295 14.7359 13.8895C14.6893 13.4054 14.8643 12.9329 15.2143 12.5887C15.5118 12.2854 15.9201 12.1162 16.3576 12.1162H17.5709C18.1484 12.1337 18.5918 12.5887 18.5918 13.1487V14.3504C18.5918 14.9104 18.1484 15.3654 17.5884 15.3829H16.4334ZM17.5593 12.9912H16.3634C16.1593 12.9912 15.9726 13.067 15.8384 13.207C15.6693 13.3704 15.5876 13.592 15.6109 13.8137C15.6459 14.1987 16.0134 14.5079 16.4334 14.5079H17.5768C17.6526 14.5079 17.7226 14.4379 17.7226 14.3504V13.1487C17.7226 13.0612 17.6526 12.997 17.5593 12.9912Z" fill="#374357"/>
<path d="M13.1663 12.4375H9.08301C8.84384 12.4375 8.64551 12.2392 8.64551 12C8.64551 11.7608 8.84384 11.5625 9.08301 11.5625H13.1663C13.4055 11.5625 13.6038 11.7608 13.6038 12C13.6038 12.2392 13.4055 12.4375 13.1663 12.4375Z" fill="#374357"/>
</svg>
