<svg width="24" height="24" viewBox="0 0 24 24" fill="none" xmlns="http://www.w3.org/2000/svg">
<path d="M12 24C18.6274 24 24 18.6274 24 12C24 5.37258 18.6274 0 12 0C5.37258 0 0 5.37258 0 12C0 18.6274 5.37258 24 12 24Z" fill="#EAECF0"/>
<path d="M15.2783 10.6113H12.2158C11.9767 10.6113 11.7783 10.413 11.7783 10.1738C11.7783 9.93466 11.9767 9.73633 12.2158 9.73633H15.2783C15.5175 9.73633 15.7158 9.93466 15.7158 10.1738C15.7158 10.413 15.5233 10.6113 15.2783 10.6113Z" fill="#374357"/>
<path d="M9.15381 11.0552C9.04298 11.0552 8.93215 11.0143 8.84465 10.9268L8.40715 10.4893C8.23798 10.3202 8.23798 10.0402 8.40715 9.87102C8.57632 9.70185 8.85632 9.70185 9.02548 9.87102L9.15381 9.99935L10.1571 8.99602C10.3263 8.82685 10.6063 8.82685 10.7755 8.99602C10.9446 9.16518 10.9446 9.44518 10.7755 9.61435L9.46298 10.9268C9.38132 11.0085 9.27048 11.0552 9.15381 11.0552Z" fill="#374357"/>
<path d="M15.2783 14.6953H12.2158C11.9767 14.6953 11.7783 14.497 11.7783 14.2578C11.7783 14.0186 11.9767 13.8203 12.2158 13.8203H15.2783C15.5175 13.8203 15.7158 14.0186 15.7158 14.2578C15.7158 14.497 15.5233 14.6953 15.2783 14.6953Z" fill="#374357"/>
<path d="M9.15381 15.1382C9.04298 15.1382 8.93215 15.0974 8.84465 15.0099L8.40715 14.5724C8.23798 14.4032 8.23798 14.1232 8.40715 13.954C8.57632 13.7849 8.85632 13.7849 9.02548 13.954L9.15381 14.0824L10.1571 13.079C10.3263 12.9099 10.6063 12.9099 10.7755 13.079C10.9446 13.2482 10.9446 13.5282 10.7755 13.6974L9.46298 15.0099C9.38132 15.0915 9.27048 15.1382 9.15381 15.1382Z" fill="#374357"/>
<path d="M13.7503 18.2712H10.2503C7.08283 18.2712 5.72949 16.9178 5.72949 13.7503V10.2503C5.72949 7.08283 7.08283 5.72949 10.2503 5.72949H13.7503C16.9178 5.72949 18.2712 7.08283 18.2712 10.2503V13.7503C18.2712 16.9178 16.9178 18.2712 13.7503 18.2712ZM10.2503 6.60449C7.56116 6.60449 6.60449 7.56116 6.60449 10.2503V13.7503C6.60449 16.4395 7.56116 17.3962 10.2503 17.3962H13.7503C16.4395 17.3962 17.3962 16.4395 17.3962 13.7503V10.2503C17.3962 7.56116 16.4395 6.60449 13.7503 6.60449H10.2503Z" fill="#374357"/>
</svg>
