<svg width="24" height="24" viewBox="0 0 24 24" fill="none" xmlns="http://www.w3.org/2000/svg">
<circle cx="12" cy="12" r="12" fill="#EAECF0"/>
<g clip-path="url(#clip0_504_1528)">
<path d="M16.2841 5.40625H15.7188V4.9375C15.7188 4.81318 15.6694 4.69395 15.5815 4.60604C15.4935 4.51814 15.3743 4.46875 15.25 4.46875C15.1257 4.46875 15.0065 4.51814 14.9185 4.60604C14.8306 4.69395 14.7812 4.81318 14.7812 4.9375V5.40625H11.9688V4.9375C11.9688 4.81318 11.9194 4.69395 11.8315 4.60604C11.7435 4.51814 11.6243 4.46875 11.5 4.46875C11.3757 4.46875 11.2565 4.51814 11.1685 4.60604C11.0806 4.69395 11.0312 4.81318 11.0312 4.9375V5.40625H8.21875V4.9375C8.21875 4.81318 8.16936 4.69395 8.08146 4.60604C7.99355 4.51814 7.87432 4.46875 7.75 4.46875C7.62568 4.46875 7.50645 4.51814 7.41854 4.60604C7.33064 4.69395 7.28125 4.81318 7.28125 4.9375V5.40625H6.71594C6.2445 5.40699 5.79257 5.5946 5.45921 5.92796C5.12585 6.26132 4.93824 6.71325 4.9375 7.18469V16.7528C4.93824 17.2243 5.12585 17.6762 5.45921 18.0095C5.79257 18.3429 6.2445 18.5305 6.71594 18.5312H16.2841C16.7555 18.5305 17.2074 18.3429 17.5408 18.0095C17.8741 17.6762 18.0618 17.2243 18.0625 16.7528V7.18469C18.0618 6.71325 17.8741 6.26132 17.5408 5.92796C17.2074 5.5946 16.7555 5.40699 16.2841 5.40625V5.40625ZM17.125 16.7528C17.1243 16.9756 17.0354 17.1891 16.8779 17.3466C16.7203 17.5042 16.5069 17.593 16.2841 17.5938H6.71594C6.49314 17.593 6.27967 17.5042 6.12212 17.3466C5.96458 17.1891 5.87574 16.9756 5.875 16.7528V7.18469C5.87574 6.96189 5.96458 6.74842 6.12212 6.59087C6.27967 6.43333 6.49314 6.34449 6.71594 6.34375H7.28125V6.8125C7.28125 6.93682 7.33064 7.05605 7.41854 7.14396C7.50645 7.23186 7.62568 7.28125 7.75 7.28125C7.87432 7.28125 7.99355 7.23186 8.08146 7.14396C8.16936 7.05605 8.21875 6.93682 8.21875 6.8125V6.34375H11.0312V6.8125C11.0312 6.93682 11.0806 7.05605 11.1685 7.14396C11.2565 7.23186 11.3757 7.28125 11.5 7.28125C11.6243 7.28125 11.7435 7.23186 11.8315 7.14396C11.9194 7.05605 11.9688 6.93682 11.9688 6.8125V6.34375H14.7812V6.8125C14.7812 6.93682 14.8306 7.05605 14.9185 7.14396C15.0065 7.23186 15.1257 7.28125 15.25 7.28125C15.3743 7.28125 15.4935 7.23186 15.5815 7.14396C15.6694 7.05605 15.7188 6.93682 15.7188 6.8125V6.34375H16.2841C16.5069 6.34449 16.7203 6.43333 16.8779 6.59087C17.0354 6.74842 17.1243 6.96189 17.125 7.18469V16.7528Z" fill="#374357"/>
<path d="M9.76224 9.29357L8.6874 10.3684L8.08131 9.76232C8.03807 9.71755 7.98634 9.68184 7.92915 9.65727C7.87196 9.63271 7.81045 9.61978 7.74821 9.61923C7.68597 9.61869 7.62425 9.63055 7.56664 9.65412C7.50903 9.67769 7.4567 9.7125 7.41268 9.75651C7.36867 9.80052 7.33387 9.85286 7.3103 9.91047C7.28673 9.96808 7.27487 10.0298 7.27541 10.092C7.27595 10.1543 7.28888 10.2158 7.31345 10.273C7.33801 10.3302 7.37372 10.3819 7.41849 10.4251L8.35599 11.3626C8.4439 11.4505 8.5631 11.4999 8.6874 11.4999C8.8117 11.4999 8.9309 11.4505 9.01881 11.3626L10.4251 9.95638C10.5104 9.86798 10.5577 9.74957 10.5566 9.62666C10.5556 9.50376 10.5063 9.38619 10.4193 9.29928C10.3324 9.21237 10.2149 9.16307 10.092 9.16201C9.96906 9.16094 9.85065 9.20818 9.76224 9.29357V9.29357Z" fill="#374357"/>
<path d="M15.25 10.0938H11.9688C11.8444 10.0938 11.7252 10.1431 11.6373 10.231C11.5494 10.319 11.5 10.4382 11.5 10.5625C11.5 10.6868 11.5494 10.806 11.6373 10.894C11.7252 10.9819 11.8444 11.0312 11.9688 11.0312H15.25C15.3743 11.0312 15.4935 10.9819 15.5815 10.894C15.6694 10.806 15.7188 10.6868 15.7188 10.5625C15.7188 10.4382 15.6694 10.319 15.5815 10.231C15.4935 10.1431 15.3743 10.0938 15.25 10.0938Z" fill="#374357"/>
<path d="M9.76224 13.5123L8.6874 14.5872L8.08131 13.9811C8.03807 13.9363 7.98634 13.9006 7.92915 13.876C7.87196 13.8515 7.81045 13.8385 7.74821 13.838C7.68597 13.8374 7.62425 13.8493 7.56664 13.8729C7.50903 13.8964 7.4567 13.9312 7.41268 13.9753C7.36867 14.0193 7.33387 14.0716 7.3103 14.1292C7.28673 14.1868 7.27487 14.2486 7.27541 14.3108C7.27595 14.373 7.28888 14.4345 7.31345 14.4917C7.33801 14.5489 7.37372 14.6006 7.41849 14.6439L8.35599 15.5814C8.4439 15.6693 8.5631 15.7186 8.6874 15.7186C8.8117 15.7186 8.9309 15.6693 9.01881 15.5814L10.4251 14.1751C10.5104 14.0867 10.5577 13.9683 10.5566 13.8454C10.5556 13.7225 10.5063 13.6049 10.4193 13.518C10.3324 13.4311 10.2149 13.3818 10.092 13.3808C9.96906 13.3797 9.85065 13.4269 9.76224 13.5123Z" fill="#374357"/>
<path d="M15.25 14.3125H11.9688C11.8444 14.3125 11.7252 14.3619 11.6373 14.4498C11.5494 14.5377 11.5 14.6569 11.5 14.7812C11.5 14.9056 11.5494 15.0248 11.6373 15.1127C11.7252 15.2006 11.8444 15.25 11.9688 15.25H15.25C15.3743 15.25 15.4935 15.2006 15.5815 15.1127C15.6694 15.0248 15.7188 14.9056 15.7188 14.7812C15.7188 14.6569 15.6694 14.5377 15.5815 14.4498C15.4935 14.3619 15.3743 14.3125 15.25 14.3125Z" fill="#374357"/>
</g>
<defs>
<clipPath id="clip0_504_1528">
<rect width="15" height="15" fill="white" transform="translate(4 4)"/>
</clipPath>
</defs>
</svg>
